<svg width="75" height="75" viewBox="0 0 75 75" fill="none" xmlns="http://www.w3.org/2000/svg">
<path d="M6.97674 65C5.05814 65 3.4157 64.3146 2.04942 62.9438C0.68314 61.5729 0 59.925 0 58V16C0 14.075 0.68314 12.4271 2.04942 11.0563C3.4157 9.68542 5.05814 9 6.97674 9H27.907L34.8837 16H62.7907C64.7093 16 66.3517 16.6854 67.718 18.0563C69.0843 19.4271 69.7674 21.075 69.7674 23H32.0058L25.0291 16H6.97674V58L15.3488 30H75L66.0174 60.0125C65.5523 61.5292 64.6948 62.7396 63.4448 63.6437C62.1948 64.5479 60.814 65 59.3023 65H6.97674ZM14.3023 58H59.3023L65.5814 37H20.5814L14.3023 58Z" fill="white"/>
</svg>
