<svg width="75" height="75" viewBox="0 0 75 75" fill="none" xmlns="http://www.w3.org/2000/svg">
<g clip-path="url(#clip0_560_3962)">
<path d="M37.5 73.3C57.2718 73.3 73.3 57.2718 73.3 37.5C73.3 17.7282 57.2718 1.7 37.5 1.7C17.7282 1.7 1.7 17.7282 1.7 37.5C1.7 57.2718 17.7282 73.3 37.5 73.3Z" fill="#302E31" stroke="white" stroke-width="3.47"/>
<path d="M19.3 18.7C20.4 13.39 24 8.6 28.84 6.2C27.998 7.055 26.98 7.71 26.2 8.64C23.01 12.08 21.57 17.06 22.45 21.64C23.56 28.63 30.13 34.34 37.25 34.24C42.77 34.487 48.15 31.31 50.85 26.52C56.63 26.716 62.25 29.7 65.55 34.49C67.24 36.99 68.56 39.92 68.65 42.97C67.58 38.92 64.89 35.32 61.22 33.29C57.67 31.29 53.31 30.78 49.42 31.96C44.54 33.36 40.51 37.35 39.12 42.26C37.94 46.17 38.445 50.48 40.3 54.06C37.72 58.53 33.06 61.72 28 62.68C24.11 63.496 20.02 62.866 16.4 61.23C19.64 62.175 23.16 62.34 26.38 61.195C30.7 59.765 34.27 56.295 35.84 52.015C37.58 47.355 36.92 41.815 33.99 37.815C31.8 34.665 28.35 32.445 24.6 31.655C23.41 31.443 22.21 31.347 21.01 31.237C19.1 27.387 18.4 22.917 19.36 18.737L19.3 18.7Z" fill="#C4C2C4"/>
</g>
<defs>
<clipPath id="clip0_560_3962">
<rect width="75" height="75" fill="white"/>
</clipPath>
</defs>
</svg>
