<svg width="75" height="75" viewBox="0 0 75 75" fill="none" xmlns="http://www.w3.org/2000/svg">
<path d="M7.3125 59.8125C5 56.6875 3.20312 53.2344 1.92187 49.4531C0.640625 45.6719 0 41.6875 0 37.5C0 33.3125 0.625 29.3438 1.875 25.5938C3.125 21.8438 4.90625 18.4063 7.21875 15.2813L12.6562 20.625C11.0312 23 9.76562 25.6094 8.85937 28.4531C7.95312 31.2969 7.5 34.3125 7.5 37.5C7.5 40.6875 7.95312 43.7188 8.85937 46.5938C9.76562 49.4688 11.0312 52.0938 12.6562 54.4688L7.3125 59.8125ZM37.5 75C33.3125 75 29.3438 74.375 25.5938 73.125C21.8438 71.875 18.4063 70.0938 15.2813 67.7813L20.625 62.3438C23 63.9688 25.6094 65.2344 28.4531 66.1406C31.2969 67.0469 34.3125 67.5 37.5 67.5C40.6875 67.5 43.7031 67.0469 46.5469 66.1406C49.3906 65.2344 52 63.9688 54.375 62.3438L59.7188 67.7813C56.5938 70.0938 53.1563 71.875 49.4063 73.125C45.6563 74.375 41.6875 75 37.5 75ZM67.6875 59.8125L62.3438 54.4688C63.9688 52.0938 65.2344 49.4688 66.1406 46.5938C67.0469 43.7188 67.5 40.6875 67.5 37.5C67.5 34.3125 67.0469 31.2969 66.1406 28.4531C65.2344 25.6094 63.9688 23 62.3438 20.625L67.7813 15.2813C70.0938 18.4063 71.875 21.8438 73.125 25.5938C74.375 29.3438 75 33.3125 75 37.5C75 41.6875 74.3594 45.6719 73.0781 49.4531C71.7969 53.2344 70 56.6875 67.6875 59.8125ZM20.5312 12.6562L15.1875 7.3125C18.3125 5 21.7656 3.20312 25.5469 1.92187C29.3281 0.640625 33.3125 0 37.5 0C41.75 0 45.75 0.640625 49.5 1.92187C53.25 3.20312 56.6875 5 59.8125 7.3125L54.4688 12.6562C52.0938 11.0312 49.4688 9.76562 46.5938 8.85937C43.7188 7.95312 40.6875 7.5 37.5 7.5C34.3125 7.5 31.2813 7.95312 28.4063 8.85937C25.5313 9.76562 22.9062 11.0312 20.5312 12.6562ZM37.5 56.25C32.3125 56.25 27.8906 54.4219 24.2344 50.7656C20.5781 47.1094 18.75 42.6875 18.75 37.5C18.75 32.3125 20.5781 27.8906 24.2344 24.2344C27.8906 20.5781 32.3125 18.75 37.5 18.75C42.6875 18.75 47.1094 20.5781 50.7656 24.2344C54.4219 27.8906 56.25 32.3125 56.25 37.5C56.25 42.6875 54.4219 47.1094 50.7656 50.7656C47.1094 54.4219 42.6875 56.25 37.5 56.25Z" fill="white"/>
</svg>
