<svg width="75" height="75" viewBox="0 0 75 75" fill="none" xmlns="http://www.w3.org/2000/svg">
<path d="M67.5 67H48.75C48.75 65.75 48.7031 64.5 48.6094 63.25C48.5156 62 48.375 60.75 48.1875 59.5H67.5V14.5H7.5V18.8125C6.25 18.625 5 18.4844 3.75 18.3906C2.5 18.2969 1.25 18.25 0 18.25V14.5C0 12.4375 0.734375 10.6719 2.20313 9.20313C3.67188 7.73438 5.4375 7 7.5 7H67.5C69.5625 7 71.3281 7.73438 72.7969 9.20313C74.2656 10.6719 75 12.4375 75 14.5V59.5C75 61.5625 74.2656 63.3281 72.7969 64.7969C71.3281 66.2656 69.5625 67 67.5 67ZM0 67V55.75C3.125 55.75 5.78125 56.8437 7.96875 59.0312C10.1563 61.2188 11.25 63.875 11.25 67H0ZM18.75 67C18.75 61.8125 16.9219 57.3906 13.2656 53.7344C9.60938 50.0781 5.1875 48.25 0 48.25V40.75C7.3125 40.75 13.5156 43.2969 18.6094 48.3906C23.7031 53.4844 26.25 59.6875 26.25 67H18.75ZM33.75 67C33.75 62.3125 32.8594 57.9219 31.0781 53.8281C29.2969 49.7344 26.8906 46.1719 23.8594 43.1406C20.8281 40.1094 17.2656 37.7031 13.1719 35.9219C9.07813 34.1406 4.6875 33.25 0 33.25V25.75C5.6875 25.75 11.0313 26.8281 16.0313 28.9844C21.0313 31.1406 25.4063 34.0938 29.1563 37.8438C32.9063 41.5938 35.8594 45.9688 38.0156 50.9688C40.1719 55.9688 41.25 61.3125 41.25 67H33.75Z" fill="white"/>
</svg>
