<svg width="75" height="75" viewBox="0 0 75 75" fill="none" xmlns="http://www.w3.org/2000/svg">
<path d="M67.5 29.5714V18.4286H56.25V11H67.5C69.5625 11 71.3281 11.7274 72.7969 13.1821C74.2656 14.6369 75 16.3857 75 18.4286V29.5714H67.5ZM0 29.5714V18.4286C0 16.3857 0.734375 14.6369 2.20313 13.1821C3.67188 11.7274 5.4375 11 7.5 11H18.75V18.4286H7.5V29.5714H0ZM56.25 63V55.5714H67.5V44.4286H75V55.5714C75 57.6143 74.2656 59.3631 72.7969 60.8179C71.3281 62.2726 69.5625 63 67.5 63H56.25ZM7.5 63C5.4375 63 3.67188 62.2726 2.20313 60.8179C0.734375 59.3631 0 57.6143 0 55.5714V44.4286H7.5V55.5714H18.75V63H7.5Z" fill="white"/>
</svg>
