<svg width="75" height="75" viewBox="0 0 75 75" fill="none" xmlns="http://www.w3.org/2000/svg">
<path d="M15 45H45V37.5H15V45ZM15 33.75H60V26.25H15V33.75ZM15 22.5H60V15H15V22.5ZM0 75V7.5C0 5.4375 0.734375 3.67188 2.20313 2.20313C3.67188 0.734375 5.4375 0 7.5 0H67.5C69.5625 0 71.3281 0.734375 72.7969 2.20313C74.2656 3.67188 75 5.4375 75 7.5V52.5C75 54.5625 74.2656 56.3281 72.7969 57.7969C71.3281 59.2656 69.5625 60 67.5 60H15L0 75ZM11.8125 52.5H67.5V7.5H7.5V56.7188L11.8125 52.5Z" fill="white"/>
</svg>
