<svg width="75" height="75" viewBox="0 0 75 75" fill="none" xmlns="http://www.w3.org/2000/svg">
<path d="M11.25 56.75H63.75V49.25H11.25V56.75ZM11.25 41.75H63.75V34.25H11.25V41.75ZM11.25 26.75H48.75V19.25H11.25V26.75ZM7.5 68C5.4375 68 3.67188 67.2656 2.20313 65.7969C0.734375 64.3281 0 62.5625 0 60.5V15.5C0 13.4375 0.734375 11.6719 2.20313 10.2031C3.67188 8.73438 5.4375 8 7.5 8H67.5C69.5625 8 71.3281 8.73438 72.7969 10.2031C74.2656 11.6719 75 13.4375 75 15.5V60.5C75 62.5625 74.2656 64.3281 72.7969 65.7969C71.3281 67.2656 69.5625 68 67.5 68H7.5ZM7.5 60.5H67.5V15.5H7.5V60.5Z" fill="white"/>
</svg>
