<svg width="75" height="75" viewBox="0 0 75 75" fill="none" xmlns="http://www.w3.org/2000/svg">
<path d="M22.5 52.5H67.5V15H22.5V52.5ZM22.5 60C20.4375 60 18.6719 59.2656 17.2031 57.7969C15.7344 56.3281 15 54.5625 15 52.5V7.5C15 5.4375 15.7344 3.67188 17.2031 2.20313C18.6719 0.734375 20.4375 0 22.5 0H67.5C69.5625 0 71.3281 0.734375 72.7969 2.20313C74.2656 3.67188 75 5.4375 75 7.5V52.5C75 54.5625 74.2656 56.3281 72.7969 57.7969C71.3281 59.2656 69.5625 60 67.5 60H22.5ZM7.5 75C5.4375 75 3.67188 74.2656 2.20313 72.7969C0.734375 71.3281 0 69.5625 0 67.5V15H7.5V67.5H60V75H7.5Z" fill="white"/>
</svg>
