<svg width="75" height="75" viewBox="0 0 75 75" fill="none" xmlns="http://www.w3.org/2000/svg">
<path d="M64.7409 52.2111L59.5273 47.058C61.9939 44.7863 63.928 42.0989 65.3295 38.996C66.7311 35.8931 67.4318 32.5963 67.4318 29.1055C67.4318 25.6148 66.7311 22.3456 65.3295 19.2982C63.928 16.2507 61.9939 13.591 59.5273 11.3193L64.7409 6C67.8803 8.93668 70.375 12.3997 72.225 16.3892C74.075 20.3786 75 24.6174 75 29.1055C75 33.5937 74.075 37.8325 72.225 41.8219C70.375 45.8113 67.8803 49.2744 64.7409 52.2111ZM53.9773 41.5726L48.5955 36.2533C49.6045 35.3113 50.4174 34.2447 51.0341 33.0534C51.6508 31.8621 51.9591 30.5462 51.9591 29.1055C51.9591 27.6649 51.6508 26.3489 51.0341 25.1577C50.4174 23.9664 49.6045 22.8997 48.5955 21.9578L53.9773 16.6385C55.7712 18.2454 57.1727 20.1154 58.1818 22.2487C59.1909 24.3819 59.6955 26.6675 59.6955 29.1055C59.6955 31.5435 59.1909 33.8292 58.1818 35.9624C57.1727 38.0956 55.7712 39.9657 53.9773 41.5726ZM27.9091 42.4037C24.2091 42.4037 21.0417 41.1016 18.4068 38.4974C15.772 35.8931 14.4545 32.7625 14.4545 29.1055C14.4545 25.4485 15.772 22.3179 18.4068 19.7137C21.0417 17.1095 24.2091 15.8074 27.9091 15.8074C31.6091 15.8074 34.7765 17.1095 37.4114 19.7137C40.0462 22.3179 41.3636 25.4485 41.3636 29.1055C41.3636 32.7625 40.0462 35.8931 37.4114 38.4974C34.7765 41.1016 31.6091 42.4037 27.9091 42.4037ZM1 69V59.6913C1 57.8628 1.47652 56.1451 2.42955 54.5383C3.38258 52.9314 4.7 51.7124 6.38182 50.8813C9.24091 49.4406 12.4644 48.2216 16.0523 47.2243C19.6402 46.2269 23.5924 45.7282 27.9091 45.7282C32.2258 45.7282 36.178 46.2269 39.7659 47.2243C43.3538 48.2216 46.5773 49.4406 49.4364 50.8813C51.1182 51.7124 52.4356 52.9314 53.3886 54.5383C54.3417 56.1451 54.8182 57.8628 54.8182 59.6913V69H1ZM7.72727 62.3509H48.0909V59.6913C48.0909 59.0818 47.9367 58.5277 47.6284 58.029C47.3201 57.5303 46.9136 57.1425 46.4091 56.8654C44.3909 55.8681 41.7981 54.8707 38.6307 53.8734C35.4633 52.876 31.8894 52.3773 27.9091 52.3773C23.9288 52.3773 20.3549 52.876 17.1875 53.8734C14.0201 54.8707 11.4273 55.8681 9.40909 56.8654C8.90455 57.1425 8.49811 57.5303 8.18977 58.029C7.88144 58.5277 7.72727 59.0818 7.72727 59.6913V62.3509ZM27.9091 35.7546C29.7591 35.7546 31.3428 35.1036 32.6602 33.8015C33.9777 32.4993 34.6364 30.934 34.6364 29.1055C34.6364 27.277 33.9777 25.7117 32.6602 24.4096C31.3428 23.1075 29.7591 22.4565 27.9091 22.4565C26.0591 22.4565 24.4754 23.1075 23.158 24.4096C21.8405 25.7117 21.1818 27.277 21.1818 29.1055C21.1818 30.934 21.8405 32.4993 23.158 33.8015C24.4754 35.1036 26.0591 35.7546 27.9091 35.7546Z" fill="white"/>
</svg>
