<svg width="75" height="75" viewBox="0 0 75 75" fill="none" xmlns="http://www.w3.org/2000/svg">
<path d="M45.8333 74V65.4486C52.0833 63.641 57.1181 60.1648 60.9375 55.02C64.7569 49.8752 66.6667 44.0352 66.6667 37.5C66.6667 30.9648 64.7569 25.1248 60.9375 19.98C57.1181 14.8352 52.0833 11.359 45.8333 9.55143V1C54.4444 2.94667 61.4583 7.30929 66.875 14.0879C72.2917 20.8664 75 28.6705 75 37.5C75 46.3295 72.2917 54.1336 66.875 60.9121C61.4583 67.6907 54.4444 72.0533 45.8333 74ZM0 50.1186V25.09H16.6667L37.5 4.23286V70.9757L16.6667 50.1186H0ZM45.8333 54.29V20.71C49.0972 22.2395 51.6493 24.5338 53.4896 27.5929C55.3299 30.6519 56.25 33.9891 56.25 37.6043C56.25 41.15 55.3299 44.435 53.4896 47.4593C51.6493 50.4836 49.0972 52.7605 45.8333 54.29ZM29.1667 24.4643L20.2083 33.4329H8.33333V41.7757H20.2083L29.1667 50.7443V24.4643Z" fill="white"/>
</svg>
