<svg width="75" height="75" viewBox="0 0 75 75" fill="none" xmlns="http://www.w3.org/2000/svg">
<path d="M37.5 52.8C41.7614 52.8 45.3835 51.3125 48.3665 48.3375C51.3494 45.3625 52.8409 41.75 52.8409 37.5C52.8409 33.25 51.3494 29.6375 48.3665 26.6625C45.3835 23.6875 41.7614 22.2 37.5 22.2C33.2386 22.2 29.6165 23.6875 26.6335 26.6625C23.6506 29.6375 22.1591 33.25 22.1591 37.5C22.1591 41.75 23.6506 45.3625 26.6335 48.3375C29.6165 51.3125 33.2386 52.8 37.5 52.8ZM37.5 46.68C34.9432 46.68 32.7699 45.7875 30.9801 44.0025C29.1903 42.2175 28.2955 40.05 28.2955 37.5C28.2955 34.95 29.1903 32.7825 30.9801 30.9975C32.7699 29.2125 34.9432 28.32 37.5 28.32C40.0568 28.32 42.2301 29.2125 44.0199 30.9975C45.8097 32.7825 46.7045 34.95 46.7045 37.5C46.7045 40.05 45.8097 42.2175 44.0199 44.0025C42.2301 45.7875 40.0568 46.68 37.5 46.68ZM37.5 63C29.2045 63 21.6477 60.6908 14.8295 56.0725C8.01136 51.4542 3.06818 45.2633 0 37.5C3.06818 29.7367 8.01136 23.5458 14.8295 18.9275C21.6477 14.3092 29.2045 12 37.5 12C45.7955 12 53.3523 14.3092 60.1705 18.9275C66.9886 23.5458 71.9318 29.7367 75 37.5C71.9318 45.2633 66.9886 51.4542 60.1705 56.0725C53.3523 60.6908 45.7955 63 37.5 63ZM37.5 56.2C43.9205 56.2 49.8153 54.5142 55.1847 51.1425C60.554 47.7708 64.6591 43.2233 67.5 37.5C64.6591 31.7767 60.554 27.2292 55.1847 23.8575C49.8153 20.4858 43.9205 18.8 37.5 18.8C31.0795 18.8 25.1847 20.4858 19.8153 23.8575C14.446 27.2292 10.3409 31.7767 7.5 37.5C10.3409 43.2233 14.446 47.7708 19.8153 51.1425C25.1847 54.5142 31.0795 56.2 37.5 56.2Z" fill="white"/>
</svg>
