<svg width="75" height="75" viewBox="0 0 75 75" fill="none" xmlns="http://www.w3.org/2000/svg">
<path d="M22.5 71.75V64.25H30V56.75H7.5C5.4375 56.75 3.67188 56.0156 2.20313 54.5469C0.734375 53.0781 0 51.3125 0 49.25V11.75C0 9.6875 0.734375 7.92188 2.20313 6.45313C3.67188 4.98438 5.4375 4.25 7.5 4.25H67.5C69.5625 4.25 71.3281 4.98438 72.7969 6.45313C74.2656 7.92188 75 9.6875 75 11.75V49.25C75 51.3125 74.2656 53.0781 72.7969 54.5469C71.3281 56.0156 69.5625 56.75 67.5 56.75H45V64.25H52.5V71.75H22.5ZM7.5 49.25H67.5V11.75H7.5V49.25Z" fill="white"/>
</svg>
