<svg width="75" height="75" viewBox="0 0 75 75" fill="none" xmlns="http://www.w3.org/2000/svg">
<path d="M37.5 75C32.375 75 27.5313 74.0156 22.9688 72.0469C18.4062 70.0781 14.4219 67.3906 11.0156 63.9844C7.60938 60.5781 4.92188 56.5938 2.95313 52.0312C0.984375 47.4687 0 42.625 0 37.5C0 32.3125 0.984375 27.4531 2.95313 22.9219C4.92188 18.3906 7.60938 14.4219 11.0156 11.0156C14.4219 7.60938 18.4062 4.92188 22.9688 2.95313C27.5313 0.984375 32.375 0 37.5 0C42.6875 0 47.5469 0.984375 52.0781 2.95313C56.6094 4.92188 60.5781 7.60938 63.9844 11.0156C67.3906 14.4219 70.0781 18.3906 72.0469 22.9219C74.0156 27.4531 75 32.3125 75 37.5C75 42.625 74.0156 47.4687 72.0469 52.0312C70.0781 56.5938 67.3906 60.5781 63.9844 63.9844C60.5781 67.3906 56.6094 70.0781 52.0781 72.0469C47.5469 74.0156 42.6875 75 37.5 75ZM37.5 67.3125C39.125 65.0625 40.5312 62.7188 41.7188 60.2813C42.9063 57.8438 43.875 55.25 44.625 52.5H30.375C31.125 55.25 32.0937 57.8438 33.2812 60.2813C34.4688 62.7188 35.875 65.0625 37.5 67.3125ZM27.75 65.8125C26.625 63.75 25.6406 61.6094 24.7969 59.3906C23.9531 57.1719 23.25 54.875 22.6875 52.5H11.625C13.4375 55.625 15.7031 58.3438 18.4219 60.6563C21.1406 62.9688 24.25 64.6875 27.75 65.8125ZM47.25 65.8125C50.75 64.6875 53.8594 62.9688 56.5781 60.6563C59.2969 58.3438 61.5625 55.625 63.375 52.5H52.3125C51.75 54.875 51.0469 57.1719 50.2031 59.3906C49.3594 61.6094 48.375 63.75 47.25 65.8125ZM8.4375 45H21.1875C21 43.75 20.8594 42.5156 20.7656 41.2969C20.6719 40.0781 20.625 38.8125 20.625 37.5C20.625 36.1875 20.6719 34.9219 20.7656 33.7031C20.8594 32.4844 21 31.25 21.1875 30H8.4375C8.125 31.25 7.89063 32.4844 7.73438 33.7031C7.57812 34.9219 7.5 36.1875 7.5 37.5C7.5 38.8125 7.57812 40.0781 7.73438 41.2969C7.89063 42.5156 8.125 43.75 8.4375 45ZM28.6875 45H46.3125C46.5 43.75 46.6406 42.5156 46.7344 41.2969C46.8281 40.0781 46.875 38.8125 46.875 37.5C46.875 36.1875 46.8281 34.9219 46.7344 33.7031C46.6406 32.4844 46.5 31.25 46.3125 30H28.6875C28.5 31.25 28.3594 32.4844 28.2656 33.7031C28.1719 34.9219 28.125 36.1875 28.125 37.5C28.125 38.8125 28.1719 40.0781 28.2656 41.2969C28.3594 42.5156 28.5 43.75 28.6875 45ZM53.8125 45H66.5625C66.875 43.75 67.1094 42.5156 67.2656 41.2969C67.4219 40.0781 67.5 38.8125 67.5 37.5C67.5 36.1875 67.4219 34.9219 67.2656 33.7031C67.1094 32.4844 66.875 31.25 66.5625 30H53.8125C54 31.25 54.1406 32.4844 54.2344 33.7031C54.3281 34.9219 54.375 36.1875 54.375 37.5C54.375 38.8125 54.3281 40.0781 54.2344 41.2969C54.1406 42.5156 54 43.75 53.8125 45ZM52.3125 22.5H63.375C61.5625 19.375 59.2969 16.6563 56.5781 14.3438C53.8594 12.0313 50.75 10.3125 47.25 9.1875C48.375 11.25 49.3594 13.3906 50.2031 15.6094C51.0469 17.8281 51.75 20.125 52.3125 22.5ZM30.375 22.5H44.625C43.875 19.75 42.9063 17.1562 41.7188 14.7187C40.5312 12.2812 39.125 9.9375 37.5 7.6875C35.875 9.9375 34.4688 12.2812 33.2812 14.7187C32.0937 17.1562 31.125 19.75 30.375 22.5ZM11.625 22.5H22.6875C23.25 20.125 23.9531 17.8281 24.7969 15.6094C25.6406 13.3906 26.625 11.25 27.75 9.1875C24.25 10.3125 21.1406 12.0313 18.4219 14.3438C15.7031 16.6563 13.4375 19.375 11.625 22.5Z" fill="white"/>
</svg>
